<?xml version="1.0" encoding="UTF-8"?>
<svg width="15px" height="15px" viewBox="0 0 15 15" version="1.1" xmlns="http://www.w3.org/2000/svg" xmlns:xlink="http://www.w3.org/1999/xlink">
    <!-- Generator: Sketch 52.6 (67491) - http://www.bohemiancoding.com/sketch -->
    <title>Path</title>
    <desc>Created with Sketch.</desc>
    <g id="Page-1" stroke="none" stroke-width="1" fill="none" fill-rule="evenodd">
        <g id="Website---Desk-top-Copy-5" transform="translate(-707.000000, -734.000000)" fill="#FFFFFF">
            <g id="Group-5" transform="translate(700.000000, 652.000000)">
                <g id="phone" transform="translate(7.000000, 82.000000)">
                    <path d="M14.4550892,0.721004709 L11.4082762,0.0178945589 C11.0772282,-0.0582757073 10.7373914,0.114572204 10.6026285,0.425112521 L9.19640713,3.70629322 C9.07336276,3.99339653 9.15539234,4.33030348 9.39855145,4.52658839 L11.173906,5.9796827 C10.1192399,8.22670556 8.27650397,10.0958067 5.98260532,11.1709793 L4.52950988,9.39562618 C4.33029518,9.15246725 3.9963176,9.07043774 3.70921407,9.19348201 L0.428030818,10.5997023 C0.114560632,10.7373947 -0.058287414,11.0772313 0.0178829115,11.408279 L0.720993608,14.4550896 C0.794234305,14.7714892 1.07547858,15 1.40652654,15 C8.90930359,15 15,8.92102683 15,1.4065371 C15,1.07841903 14.7744187,0.794245349 14.4550892,0.721004709 Z" id="Path"></path>
                </g>
            </g>
        </g>
    </g>
</svg>