<?xml version="1.0" encoding="UTF-8"?>
<svg width="15px" height="13px" viewBox="0 0 15 13" version="1.1" xmlns="http://www.w3.org/2000/svg" xmlns:xlink="http://www.w3.org/1999/xlink">
    <!-- Generator: Sketch 52.6 (67491) - http://www.bohemiancoding.com/sketch -->
    <title>Shape</title>
    <desc>Created with Sketch.</desc>
    <g id="Page-1" stroke="none" stroke-width="1" fill="none" fill-rule="evenodd">
        <g id="Website---Desk-top-Copy-5" transform="translate(-828.000000, -697.000000)" fill="#FFFFFF" fill-rule="nonzero">
            <g id="Group-5" transform="translate(700.000000, 652.000000)">
                <g id="comment-dots-copy-2" transform="translate(128.000000, 45.000000)">
                    <path d="M7.5,0 C3.35742188,0 0,2.7015625 0,6.03571429 C0,7.475 0.626953125,8.79241071 1.66992188,9.82834821 C1.30371094,11.2908482 0.0791015625,12.59375 0.064453125,12.6082589 C0,12.675 -0.017578125,12.7736607 0.0205078125,12.8607143 C0.05859375,12.9477679 0.140625,13 0.234375,13 C2.17675781,13 3.6328125,12.0772321 4.35351562,11.5084821 C5.31152344,11.8654018 6.375,12.0714286 7.5,12.0714286 C11.6425781,12.0714286 15,9.36986607 15,6.03571429 C15,2.7015625 11.6425781,0 7.5,0 Z M4.16666667,6.5 C3.70572917,6.5 3.33333333,6.13691406 3.33333333,5.6875 C3.33333333,5.23808594 3.70572917,4.875 4.16666667,4.875 C4.62760417,4.875 5,5.23808594 5,5.6875 C5,6.13691406 4.62760417,6.5 4.16666667,6.5 Z M7.5,6.5 C7.0390625,6.5 6.66666667,6.13691406 6.66666667,5.6875 C6.66666667,5.23808594 7.0390625,4.875 7.5,4.875 C7.9609375,4.875 8.33333333,5.23808594 8.33333333,5.6875 C8.33333333,6.13691406 7.9609375,6.5 7.5,6.5 Z M11.6666667,6.5 C11.2057292,6.5 10.8333333,6.13691406 10.8333333,5.6875 C10.8333333,5.23808594 11.2057292,4.875 11.6666667,4.875 C12.1276042,4.875 12.5,5.23808594 12.5,5.6875 C12.5,6.13691406 12.1276042,6.5 11.6666667,6.5 Z" id="Shape"></path>
                </g>
            </g>
        </g>
    </g>
</svg>